<?xml version="1.0" standalone="no"?>
<!DOCTYPE svg PUBLIC "-//W3C//DTD SVG 20010904//EN"
 "http://www.w3.org/TR/2001/REC-SVG-20010904/DTD/svg10.dtd">
<svg version="1.0" xmlns="http://www.w3.org/2000/svg"
 width="3264.000000pt" height="3264.000000pt" viewBox="0 0 3264.000000 3264.000000"
 preserveAspectRatio="xMidYMid meet">

<g transform="translate(0.000000,3264.000000) scale(0.100000,-0.100000)"
fill="#000000" stroke="none">
<path d="M21938 31976 c-1 -2 -66 -6 -143 -10 -1304 -60 -2668 -422 -3885
-1030 -338 -169 -506 -272 -760 -465 -135 -103 -134 -102 -184 -146 -19 -16
-51 -43 -71 -60 -80 -64 -283 -262 -395 -385 -41 -46 -82 -90 -90 -99 -31 -34
-146 -173 -168 -204 -12 -18 -37 -50 -55 -71 -18 -21 -43 -56 -57 -76 -281
-421 -289 -434 -414 -693 -178 -367 -297 -688 -372 -1002 -4 -16 -8 -34 -10
-40 -28 -97 -95 -478 -109 -620 -3 -27 -9 -90 -14 -138 -18 -180 -19 -549 -1
-776 23 -295 70 -577 150 -886 49 -187 149 -486 206 -613 13 -29 24 -55 24
-57 0 -5 47 -109 102 -225 70 -147 264 -489 315 -555 4 -6 35 -51 68 -100 33
-50 64 -95 70 -102 19 -23 30 -38 60 -78 181 -244 512 -592 760 -797 72 -59
145 -117 162 -130 18 -13 68 -49 110 -81 133 -99 382 -258 513 -327 177 -93
387 -195 440 -213 25 -8 59 -22 75 -30 17 -9 57 -25 90 -37 33 -12 71 -28 85
-35 14 -7 41 -16 60 -20 19 -4 40 -11 45 -15 6 -4 28 -12 50 -18 22 -6 72 -21
110 -32 151 -46 383 -103 530 -130 61 -11 120 -22 132 -24 38 -8 275 -35 348
-41 39 -3 98 -8 131 -11 81 -7 502 -7 588 0 36 3 96 8 134 11 328 27 736 108
1057 211 111 36 324 114 382 140 17 8 33 14 36 14 7 0 137 60 283 130 549 266
1074 416 1694 487 269 30 847 24 1080 -12 14 -3 50 -7 80 -10 30 -3 62 -7 70
-10 8 -3 58 -12 110 -20 52 -8 118 -20 145 -25 28 -6 59 -12 70 -14 31 -7 296
-75 330 -86 522 -165 930 -355 1324 -616 57 -38 120 -80 140 -93 20 -13 56
-40 81 -60 25 -20 56 -44 70 -53 14 -8 39 -27 55 -41 17 -14 77 -65 135 -114
222 -187 505 -474 637 -649 20 -27 42 -54 48 -61 18 -20 44 -56 104 -138 304
-421 542 -883 700 -1361 95 -288 182 -667 206 -894 3 -30 8 -64 10 -75 2 -11
7 -51 10 -90 4 -38 9 -86 11 -105 9 -62 12 -592 4 -700 -17 -216 -34 -357 -74
-585 -22 -125 -81 -374 -116 -490 -84 -274 -178 -517 -296 -762 -76 -158 -232
-431 -323 -566 -36 -54 -80 -121 -97 -149 -18 -27 -45 -64 -61 -81 -16 -18
-38 -45 -48 -62 -10 -16 -45 -61 -77 -100 -33 -38 -74 -87 -91 -108 -60 -72
-122 -139 -233 -250 -225 -227 -403 -379 -623 -535 -13 -9 -28 -22 -35 -27 -6
-6 -29 -22 -51 -35 -22 -13 -46 -30 -53 -37 -7 -7 -17 -13 -22 -13 -5 0 -15
-6 -22 -13 -7 -7 -32 -24 -55 -37 -24 -13 -41 -25 -39 -27 2 -3 78 38 168 90
311 180 583 359 922 607 92 67 239 182 395 309 67 54 284 243 386 335 94 85
491 479 560 556 23 25 79 88 126 140 101 112 256 295 319 375 25 31 70 87 100
124 30 38 69 88 87 112 17 24 73 100 122 169 533 735 1010 1634 1291 2435 17
50 36 101 41 115 21 49 119 354 150 465 11 39 24 84 29 100 73 250 167 653
215 930 76 429 119 794 146 1240 10 183 14 868 5 960 -3 27 -8 104 -11 170
-16 337 -83 868 -161 1265 -158 809 -413 1585 -769 2340 -43 91 -87 180 -97
199 -11 19 -44 82 -73 140 -90 177 -139 264 -261 473 -160 271 -368 586 -546
826 -93 125 -292 381 -344 442 -276 324 -381 438 -629 685 -174 174 -229 226
-368 354 -73 66 -337 290 -408 346 -35 27 -66 52 -69 55 -3 4 -63 50 -135 103
-71 54 -146 110 -165 125 -58 47 -314 222 -436 299 -63 40 -143 92 -177 117
-79 56 -524 311 -585 336 -26 10 -81 37 -122 60 -82 45 -367 182 -495 237
-169 73 -427 180 -465 193 -14 5 -56 20 -95 35 -575 212 -1010 333 -1638 454
-111 22 -238 44 -282 50 -44 6 -107 16 -140 21 -89 14 -272 38 -335 44 -307
29 -341 32 -620 46 -171 9 -812 13 -822 6z"/>
<path d="M16220 19719 c-57 -9 -150 -34 -185 -49 -167 -73 -223 -107 -305
-190 -48 -50 -160 -198 -160 -213 0 -3 -13 -35 -30 -70 -16 -36 -30 -73 -30
-82 0 -9 -4 -25 -10 -35 -5 -10 -17 -62 -26 -117 -15 -86 -17 -210 -18 -983
l-1 -885 -215 0 c-118 0 -390 2 -605 5 -456 5 -568 -4 -750 -57 -191 -55 -325
-102 -379 -131 -188 -102 -337 -365 -336 -596 0 -71 31 -181 71 -257 64 -121
293 -326 442 -394 132 -61 117 -60 982 -60 l790 0 7 -595 c9 -734 24 -1276 38
-1355 41 -237 76 -363 128 -455 45 -82 110 -152 177 -190 113 -65 334 -111
555 -117 129 -3 139 -2 218 26 101 36 170 89 243 188 70 93 152 248 183 343
62 191 59 124 60 1190 l1 975 850 5 c766 5 858 8 935 24 191 40 297 90 419
195 77 66 123 133 155 226 45 130 58 211 54 335 -8 228 -60 317 -286 486 -226
170 -300 201 -452 188 -114 -9 -264 -9 -1067 1 l-613 7 -1 472 c-1 635 -15
1314 -29 1405 -27 186 -106 401 -185 504 -76 99 -214 192 -350 236 -73 23
-200 33 -275 20z"/>
<path d="M5378 18837 c-20 -12 -62 -38 -94 -57 -32 -19 -74 -45 -94 -57 -19
-13 -42 -26 -50 -30 -23 -10 -422 -280 -524 -354 -48 -35 -96 -69 -105 -74 -9
-6 -25 -18 -36 -27 -11 -9 -47 -37 -80 -62 -33 -25 -67 -52 -76 -61 -9 -8 -19
-15 -22 -15 -4 0 -15 -8 -25 -17 -10 -10 -32 -29 -50 -43 -18 -14 -41 -32 -51
-40 -11 -8 -49 -40 -86 -70 -38 -30 -78 -64 -90 -75 -13 -11 -56 -49 -96 -85
-39 -36 -84 -74 -98 -85 -15 -11 -43 -36 -62 -55 -20 -19 -93 -89 -164 -155
-70 -66 -151 -145 -181 -175 -29 -30 -98 -102 -153 -158 -55 -57 -124 -131
-153 -164 -29 -33 -66 -75 -83 -92 -25 -27 -135 -156 -286 -337 -16 -19 -37
-46 -46 -60 -9 -13 -30 -41 -47 -61 -17 -20 -41 -49 -53 -65 -12 -15 -37 -48
-57 -73 -19 -25 -56 -74 -80 -110 -25 -36 -64 -90 -86 -120 -22 -30 -66 -93
-96 -140 -31 -47 -66 -96 -79 -110 -12 -14 -59 -87 -105 -164 -45 -76 -95
-152 -110 -170 -37 -43 -172 -277 -229 -399 -26 -56 -75 -151 -109 -211 -34
-60 -62 -113 -62 -117 0 -5 -40 -93 -90 -195 -50 -101 -90 -189 -90 -194 0 -6
-14 -34 -30 -63 -17 -30 -30 -61 -30 -69 0 -9 -20 -59 -45 -112 -25 -54 -45
-102 -45 -108 0 -6 -8 -29 -19 -52 -10 -23 -28 -68 -41 -101 -12 -33 -28 -76
-35 -95 -7 -19 -27 -75 -45 -125 -17 -49 -38 -105 -46 -123 -8 -18 -14 -39
-14 -47 0 -8 -6 -29 -14 -47 -13 -31 -37 -107 -66 -208 -7 -25 -20 -65 -28
-90 -8 -25 -18 -61 -22 -80 -5 -19 -18 -66 -30 -105 -24 -79 -23 -76 -44 -165
-8 -36 -22 -92 -31 -125 -8 -33 -17 -69 -19 -80 -2 -11 -18 -83 -35 -160 -17
-77 -33 -151 -34 -165 -2 -14 -14 -74 -25 -135 -12 -60 -24 -128 -27 -150 -3
-22 -7 -49 -10 -60 -16 -78 -52 -357 -74 -576 -21 -205 -25 -257 -41 -549 -8
-143 -5 -913 4 -970 2 -14 7 -81 11 -150 3 -69 8 -141 10 -160 2 -19 9 -80 15
-135 6 -55 13 -120 15 -145 3 -25 7 -67 10 -95 5 -47 71 -475 80 -520 2 -11 9
-45 15 -75 6 -30 13 -71 16 -90 13 -82 92 -419 138 -595 73 -274 157 -543 281
-895 32 -92 186 -470 225 -555 10 -22 40 -87 65 -145 51 -113 228 -470 278
-560 17 -30 47 -86 66 -123 38 -71 39 -73 86 -152 17 -27 39 -66 50 -86 31
-55 82 -137 182 -294 51 -79 93 -148 93 -153 0 -6 7 -12 15 -16 8 -3 15 -12
15 -20 0 -8 4 -16 8 -18 11 -4 92 -124 92 -137 0 -5 4 -11 9 -13 4 -1 43 -52
86 -113 43 -60 82 -111 87 -113 4 -2 8 -10 8 -17 0 -7 7 -15 15 -19 8 -3 15
-10 15 -16 0 -5 9 -20 19 -32 11 -13 68 -84 128 -159 161 -202 257 -316 412
-488 177 -197 512 -531 693 -691 15 -14 54 -48 86 -77 31 -29 93 -82 137 -118
44 -37 96 -81 116 -98 20 -18 59 -50 88 -72 29 -22 63 -49 76 -61 12 -12 39
-31 59 -43 20 -13 36 -26 36 -31 0 -5 21 -22 48 -39 81 -54 142 -98 165 -119
12 -11 51 -40 87 -64 36 -24 74 -51 85 -61 20 -17 86 -60 253 -164 51 -32 142
-90 201 -129 60 -40 157 -100 216 -134 109 -63 145 -82 495 -262 107 -56 204
-107 215 -115 11 -7 26 -13 35 -13 8 0 51 -17 95 -39 44 -21 118 -56 165 -76
47 -20 103 -45 125 -55 22 -10 54 -22 70 -28 17 -6 71 -27 120 -47 129 -52
175 -71 215 -84 19 -7 71 -26 115 -42 44 -17 94 -34 110 -39 17 -5 57 -18 90
-29 109 -38 120 -42 138 -46 10 -2 44 -13 75 -23 31 -11 77 -25 102 -32 25 -7
68 -20 95 -28 28 -9 59 -17 70 -19 11 -1 52 -12 90 -23 39 -12 79 -23 90 -25
11 -2 49 -11 85 -20 36 -9 117 -27 180 -41 63 -13 128 -29 145 -34 32 -10 273
-57 334 -65 20 -3 59 -9 86 -14 28 -6 68 -13 90 -16 22 -3 51 -7 65 -10 76
-14 356 -48 485 -60 33 -3 76 -7 95 -10 19 -2 76 -7 125 -10 50 -3 115 -8 145
-10 311 -23 969 -23 1250 0 30 3 89 7 130 10 128 9 331 29 485 50 17 2 53 6
80 10 88 11 107 14 265 40 180 30 186 31 254 44 28 6 87 18 131 26 301 60 849
208 1150 312 88 30 165 56 170 58 6 1 21 6 35 12 14 6 88 34 165 62 77 29 154
58 170 66 17 7 100 42 185 78 85 36 205 89 265 117 61 29 139 65 175 82 194
88 504 256 602 324 26 19 50 34 53 34 3 0 11 5 18 10 45 38 61 50 67 50 4 0
18 9 31 20 35 29 41 33 69 51 14 9 35 25 47 35 11 11 31 26 43 34 12 8 32 24
44 35 12 11 37 31 55 45 35 27 44 35 147 125 103 90 385 376 462 470 18 22 46
56 62 75 49 59 163 207 205 266 22 32 45 62 51 68 5 6 27 40 48 76 21 36 46
74 56 85 23 26 200 334 200 347 0 6 19 45 43 87 24 42 51 96 61 121 11 25 36
82 57 127 22 44 39 86 39 92 0 6 4 19 9 29 14 26 52 123 56 141 2 9 12 36 23
61 11 25 23 61 27 80 4 19 11 41 15 50 9 15 49 143 54 170 4 20 16 65 31 120
11 40 26 101 40 167 3 13 7 33 10 45 11 51 15 75 21 112 3 21 8 48 10 60 13
65 34 210 39 271 3 39 8 77 10 85 12 48 19 219 20 465 0 274 -5 380 -25 559
-6 49 -13 108 -15 130 -3 23 -7 51 -9 63 -2 11 -8 43 -12 70 -33 227 -152 678
-240 902 -51 132 -148 366 -154 371 -3 3 -12 21 -20 40 -21 53 -126 255 -179
343 -25 43 -51 88 -58 100 -7 12 -17 29 -22 37 -6 8 -45 69 -88 135 -43 66
-80 122 -83 125 -3 3 -17 21 -30 40 -13 19 -29 40 -35 46 -5 6 -17 22 -25 34
-29 44 -170 218 -225 277 -16 18 -55 60 -85 94 -93 104 -269 276 -384 374 -32
28 -74 65 -93 83 -20 17 -39 32 -42 32 -3 0 -18 10 -32 23 -15 12 -41 33 -59
47 -19 14 -40 32 -49 41 -9 9 -30 24 -48 32 -17 9 -37 22 -45 29 -34 32 -98
78 -158 112 -36 21 -74 46 -85 56 -24 21 -278 167 -355 203 -30 14 -75 37
-100 50 -25 13 -63 32 -85 41 -22 10 -62 28 -90 41 -61 28 -108 48 -115 49 -3
1 -34 13 -70 28 -73 29 -103 41 -110 42 -6 1 -64 24 -95 36 -11 5 -60 21 -110
35 -49 15 -101 31 -115 36 -25 9 -54 17 -100 26 -14 2 -34 9 -45 14 -11 5 -54
16 -95 24 -41 9 -83 18 -92 21 -44 11 -162 34 -198 39 -14 2 -68 10 -120 19
-52 8 -115 18 -140 20 -25 3 -101 10 -170 17 -201 21 -703 17 -915 -6 -22 -2
-74 -7 -115 -10 -41 -4 -78 -9 -82 -11 -3 -2 -40 -9 -80 -14 -84 -11 -119 -17
-168 -30 -19 -5 -55 -12 -80 -15 -55 -8 -374 -89 -433 -111 -23 -8 -96 -33
-162 -55 -66 -21 -138 -48 -160 -58 -22 -10 -51 -22 -65 -26 -27 -8 -62 -23
-156 -67 -34 -15 -64 -28 -67 -28 -3 0 -70 -31 -149 -69 -206 -99 -369 -169
-468 -200 -36 -12 -72 -25 -80 -30 -18 -10 -178 -60 -310 -96 -432 -120 -862
-179 -1310 -178 -190 0 -295 6 -525 27 -78 8 -218 27 -225 31 -3 1 -32 6 -65
10 -51 5 -242 44 -310 61 -11 3 -38 9 -60 14 -50 11 -195 49 -215 57 -19 8
-17 7 -70 21 -25 7 -52 16 -60 21 -9 5 -31 12 -50 16 -19 4 -41 11 -50 15 -8
5 -42 18 -75 30 -108 39 -189 71 -222 87 -17 9 -33 14 -35 12 -2 -2 -23 8 -48
22 -25 14 -72 37 -105 50 -33 13 -91 42 -130 64 -38 22 -113 62 -165 88 -52
27 -113 61 -135 77 -22 16 -85 56 -140 90 -55 33 -118 74 -140 91 -22 16 -61
44 -87 60 -27 17 -48 35 -48 39 0 5 -8 11 -18 14 -10 3 -38 24 -62 46 -25 22
-48 40 -52 40 -5 0 -16 8 -26 18 -10 9 -42 37 -72 62 -30 24 -69 58 -87 75
-18 16 -68 64 -113 105 -45 41 -105 99 -133 129 -29 30 -68 71 -87 91 -38 39
-132 146 -158 180 -10 11 -30 36 -47 54 -16 18 -37 44 -45 56 -8 12 -20 28
-25 34 -26 29 -115 144 -115 149 0 3 -10 17 -23 31 -12 13 -29 37 -37 53 -8
15 -18 30 -21 33 -13 11 -89 130 -89 139 0 5 -4 11 -8 13 -18 7 -189 310 -262
463 -103 219 -137 296 -146 330 -4 17 -10 32 -14 35 -4 3 -19 41 -34 85 -15
44 -31 89 -36 100 -36 76 -174 584 -184 680 -2 17 -9 55 -15 85 -7 30 -14 73
-17 95 -3 22 -9 65 -14 95 -5 30 -12 91 -15 135 -4 44 -8 91 -10 105 -18 132
-24 540 -10 710 3 47 8 105 10 130 11 132 33 319 40 330 1 3 6 32 10 65 5 49
40 225 61 310 3 11 7 31 10 45 7 36 54 212 61 230 8 19 7 17 21 70 7 25 16 52
21 60 5 9 12 31 16 50 4 19 11 41 15 50 5 8 18 42 30 75 55 152 79 208 139
337 23 47 41 91 41 97 0 5 14 34 31 63 17 29 60 109 96 177 35 69 88 161 117
205 29 45 70 110 92 146 21 36 42 68 47 71 9 6 21 23 75 107 19 29 38 52 42
52 5 0 11 8 14 18 3 9 18 31 32 47 14 17 38 46 52 65 24 32 103 126 159 190
12 14 57 62 100 108 43 45 83 88 89 95 37 42 258 245 329 302 21 17 47 38 59
47 11 10 28 23 36 30 8 7 32 26 55 42 22 16 47 35 55 43 30 29 165 123 176
123 7 0 14 7 18 15 7 18 9 19 -36 -8z"/>
</g>
</svg>
